M48
; DRILL file {KiCad (5.1.8)-1} date 12/30/20 02:41:11
; FORMAT={-:-/ absolute / inch / decimal}
; #@! TF.CreationDate,2020-12-30T02:41:11+02:00
; #@! TF.GenerationSoftware,Kicad,Pcbnew,(5.1.8)-1
; #@! TF.FileFunction,Plated,1,2,PTH
FMAT,2
INCH
T1C0.0236
T2C0.0394
%
G90
G05
T1
X4.0799Y-5.0126
X4.0815Y-5.4728
X4.1388Y-5.0128
X4.1398Y-5.4734
X4.1961Y-5.0126
X4.1976Y-5.4728
X4.374Y-5.06
X4.374Y-5.123
X4.4892Y-4.8179
X4.5154Y-5.3445
X4.5547Y-5.3819
X4.5689Y-4.8189
X4.6457Y-5.2441
X4.685Y-5.2815
X4.7884Y-5.0984
X4.8504Y-5.0984
X5.0827Y-5.1496
X5.0827Y-5.6122
X5.1417Y-5.1506
X5.1427Y-5.6122
X5.1988Y-5.1504
X5.1988Y-5.6122
T2
X4.6535Y-4.8256
X5.0305Y-4.7508
X5.0305Y-4.8404
X5.1839Y-4.7406
X5.1839Y-4.8406
T0
M30
